<?xml version="1.0" encoding="iso-8859-1"?>
<!-- Generator: Adobe Illustrator 19.0.0, SVG Export Plug-In . SVG Version: 6.00 Build 0)  -->
<svg version="1.1" id="Layer_1" xmlns="http://www.w3.org/2000/svg" xmlns:xlink="http://www.w3.org/1999/xlink" x="0px" y="0px"
	 viewBox="0 0 460 460" style="enable-background:new 0 0 460 460;" xml:space="preserve">
<g>
	<path style="fill:#FFAD9E;" d="M230.332,0.001C103.307,0.001,0,102.975,0,230.001c0,98.934,62.667,183.279,150.4,215.746
		l294.785-297.249C412.376,61.702,328.659,0.001,230.332,0.001z"/>
	<path style="fill:#FF7F4F;" d="M445.168,148.502l-66.835-66.835l-296,296l68.071,68.071c24.91,9.218,51.837,14.262,79.928,14.262
		C357.358,460,460,357.026,460,230.001C460,201.301,454.745,173.836,445.168,148.502z"/>
	<polygon style="fill:#C2FBFF;" points="378.333,81.668 378.333,377.667 230.333,377.667 200.333,229.668 230.333,81.668 	"/>
	<rect x="82.333" y="81.668" style="fill:#FFFFFF;" width="148" height="296"/>
	<path style="fill:#366796;" d="M220.333,219.668h-118v-118h118V219.668z M122.333,199.668h78v-78h-78
		C122.333,121.668,122.333,199.668,122.333,199.668z"/>
	<rect x="142.333" y="141.668" style="fill:#366796;" width="38" height="38"/>
	<path style="fill:#121149;" d="M358.333,219.668h-118v-118h118V219.668z M260.333,199.668h78v-78h-78V199.668z"/>
	<rect x="280.333" y="141.668" style="fill:#121149;" width="38" height="38"/>
	<path style="fill:#366796;" d="M220.333,357.667h-118v-118h118V357.667z M122.333,337.667h78v-78h-78
		C122.333,259.667,122.333,337.667,122.333,337.667z"/>
	<rect x="142.333" y="279.667" style="fill:#366796;" width="38" height="38"/>
	<path style="fill:#121149;" d="M358.333,357.667h-118v-118h118V357.667z M260.333,337.667h78v-78h-78V337.667z"/>
	<rect x="280.333" y="279.667" style="fill:#121149;" width="38" height="38"/>
</g>
<g>
</g>
<g>
</g>
<g>
</g>
<g>
</g>
<g>
</g>
<g>
</g>
<g>
</g>
<g>
</g>
<g>
</g>
<g>
</g>
<g>
</g>
<g>
</g>
<g>
</g>
<g>
</g>
<g>
</g>
</svg>
